<?xml version="1.0" encoding="UTF-8"?>
<!DOCTYPE svg PUBLIC "-//W3C//DTD SVG 1.1//EN" "http://www.w3.org/Graphics/SVG/1.1/DTD/svg11.dtd">
<!-- Creator: CorelDRAW -->
<svg xmlns="http://www.w3.org/2000/svg" xml:space="preserve" width="280mm" height="40.2mm" version="1.1" style="shape-rendering:geometricPrecision; text-rendering:geometricPrecision; image-rendering:optimizeQuality; fill-rule:evenodd; clip-rule:evenodd"
viewBox="0 0 28000 4020"
 xmlns:xlink="http://www.w3.org/1999/xlink"
 xmlns:xodm="http://www.corel.com/coreldraw/odm/2003">
 <defs>
  <style type="text/css">
   <![CDATA[
    .str0 {stroke:#38464F;stroke-width:105.83;stroke-miterlimit:22.9256}
    .fil5 {fill:none}
    .fil6 {fill:#38464F}
    .fil7 {fill:#38464F}
    .fil3 {fill:#8CCE24}
    .fil2 {fill:#B4F654}
    .fil4 {fill:#DFFBB5}
    .fil1 {fill:#38464F;fill-rule:nonzero}
    .fil0 {fill:white;fill-rule:nonzero}
   ]]>
  </style>
     <clipPath id="id0">
      <path d="M24630.02 2015.06l369.44 -650.1 369.45 -650.1 738.91 0 738.9 0 369.46 650.1 369.44 650.1 -369.44 650.1 -369.46 650.1 -738.9 0 -738.91 0 -369.45 -650.1 -369.44 -650.1z"/>
     </clipPath>
      <clipPath id="id1">
       <path d="M24764.81 2015.06l335.74 -590.8 335.76 -590.8 671.51 0 671.51 0 335.74 590.8 335.75 590.8 -335.75 590.81 -335.74 590.79 -671.51 0 -671.51 0 -335.76 -590.79 -335.74 -590.81z"/>
      </clipPath>
      <clipPath id="id2">
       <path d="M24630.02 2015.06l369.44 -650.1 369.45 -650.1 738.91 0 738.9 0 369.46 650.1 369.44 650.1 -369.44 650.1 -369.46 650.1 -738.9 0 -738.91 0 -369.45 -650.1 -369.44 -650.1z"/>
      </clipPath>
 </defs>
 <g id="Camada_x0020_1">
  <metadata id="CorelCorpID_0Corel-Layer"/>
  <g id="_2249858674112">
   <g>
    <g>
     <path class="fil0" d="M1357.67 1655.42l-887.76 361.92 887.76 362.25 0 173.01 -1119.84 -458.98 0 -152.23 1119.84 -461.9 0 175.93zm19900.48 1123.09l-143.79 0 479.75 -1526.88 143.47 0 -479.43 1526.88zm1850.18 -837.12l0 152.23 -1119.84 458.98 0 -173.01 887.76 -362.25 -887.76 -361.92 0 -175.93 1119.84 461.9z"/>
     <path class="fil1" d="M2132.8 1859.26l130.49 0c119.78,0 203.84,-15.9 252.53,-48.04 48.37,-31.81 72.71,-86.01 72.71,-161.97 0,-77.57 -23.37,-132.43 -69.78,-163.59 -46.75,-31.49 -136.98,-47.07 -270.72,-47.07l-115.23 0 0 420.67zm0 469.37c0,52.58 7.14,86.01 21.43,99.97 14.28,13.96 50.63,20.78 109.06,20.78l91.54 0 0 148.01 -701.13 0 0 -148.01 75.96 0c57.78,0 93.81,-6.82 107.76,-20.45 13.96,-13.64 20.78,-47.07 20.78,-100.3l0 -769.29c0,-53.23 -6.82,-86.67 -20.78,-100.3 -13.95,-13.63 -49.98,-20.45 -107.76,-20.45l-75.96 0 0 -148.01 687.82 0c176.25,0 309.01,30.18 398.92,90.56 89.59,60.05 134.38,149.64 134.38,268.11 0,64.92 -12.33,121.4 -36.68,169.44 -24.34,48.37 -61.34,89.26 -110.68,123.02 -35.38,23.37 -85.04,40.25 -148.34,50.31 -63.3,10.07 -151.91,15.26 -265.19,15.26l-181.13 0 0 321.35zm1334.08 -496.63l230.46 0c92.51,0 160.35,-15.58 203.52,-47.07 43.18,-31.16 64.6,-81.15 64.6,-149.63 0,-70.44 -20.45,-120.75 -61.67,-150.94 -41.23,-30.51 -112.31,-45.77 -212.94,-45.77l-223.97 0 0 393.41zm0 496.3c0,52.91 7.14,86.02 21.43,99.98 14.28,13.95 50.63,21.1 109.06,21.1l91.54 0 0 148.01 -701.13 0 0 -148.01 75.96 0c57.78,0 93.81,-6.82 107.76,-20.45 13.96,-13.64 20.78,-47.07 20.78,-100.63l0 -768.96c0,-53.23 -6.82,-86.67 -20.78,-100.3 -13.95,-13.63 -49.98,-20.45 -107.76,-20.45l-75.96 0 0 -148.01 780.65 0c163.6,0 284.99,25.64 364.52,76.93 79.2,51.61 118.8,130.48 118.8,236.95 0,93.81 -31.49,168.79 -94.78,224.94 -62.97,56.16 -156.13,91.54 -279.48,106.14 93.49,13.96 158.73,40.25 196.06,79.2 37,39.28 58.75,106.8 65.24,203.2l8.44 117.18c3.25,45.77 8.77,75.3 17.2,89.26 8.12,13.96 21.75,21.1 40.58,21.1 37.65,0 57.78,-71.41 60.37,-214.23 0,-2.6 0,-4.55 0,-5.52l123.67 0c1.3,8.12 2.28,16.88 2.6,25.97 0.32,9.09 0.32,22.4 0.32,39.6 0,119.77 -21.74,207.09 -65.24,262.27 -43.17,55.18 -111.98,82.77 -205.79,82.77 -77.25,0 -137.95,-21.1 -181.77,-63.62 -43.5,-42.52 -66.87,-101.27 -69.14,-176.9l-5.84 -153.21c-3.9,-101.92 -26.3,-171.39 -67.84,-207.74 -41.55,-36.68 -120.1,-54.86 -235.98,-54.86l-93.49 0 0 348.29zm1359.4 -385.29c0,168.79 36.35,300.25 109.38,394.38 72.71,94.13 173.66,141.2 303.17,141.2 129.19,0 229.82,-47.07 302.53,-140.87 72.38,-93.81 108.73,-225.27 108.73,-394.71 0,-168.79 -36.03,-299.92 -108.41,-393.41 -72.06,-93.48 -173.01,-140.22 -302.85,-140.22 -129.51,0 -230.46,46.74 -303.17,140.22 -73.03,93.49 -109.38,224.62 -109.38,393.41zm-307.72 0c0,-206.77 66.22,-373.28 198.33,-499.87 132.11,-126.27 306.09,-189.57 521.94,-189.57 216.18,0 389.84,63.3 521.63,189.57 131.46,126.59 197.35,293.1 197.35,499.87 0,207.41 -65.89,374.26 -198,501.17 -131.79,126.92 -305.45,190.21 -520.98,190.21 -215.85,0 -389.83,-63.62 -521.94,-190.53 -132.11,-127.24 -198.33,-294.08 -198.33,-500.85zm2698.99 661.85l-69.13 -108.42c-59.73,47.39 -121.73,82.77 -186.64,105.49 -64.6,23.05 -135.04,34.41 -210.99,34.41 -89.59,0 -172.68,-15.9 -249.94,-47.39 -76.93,-31.81 -145.74,-78.55 -205.79,-139.9 -64.92,-65.24 -113.93,-140.87 -147.04,-226.57 -33.43,-85.36 -49.99,-178.52 -49.99,-279.47 0,-100.62 17.21,-194.43 51.94,-281.1 34.4,-86.34 84.72,-162.29 150.61,-227.54 61.67,-60.37 130.48,-105.82 207.09,-136.65 76.28,-30.84 159.37,-46.09 248.64,-46.09 74.98,0 143.14,11.68 204.49,35.05 61.67,23.7 119.45,59.73 173.33,108.42l55.18 -112.31 137.63 0 0 510.26 -149.96 0c-25.32,-120.75 -72.71,-214.23 -141.85,-281.42 -68.81,-66.87 -151.91,-100.3 -248.96,-100.3 -116.2,0 -208.39,47.71 -277.2,143.47 -68.82,95.75 -103.22,225.26 -103.22,388.21 0,165.22 34.4,293.43 103.22,383.99 68.81,90.57 165.54,136.01 290.51,136.01 89.91,0 160.67,-21.1 212.28,-62.97 51.61,-42.2 77.58,-99.65 77.58,-172.36l0 -74.33c0,-45.45 -6.82,-74.66 -20.77,-87.64 -13.96,-12.99 -56.16,-19.48 -126.27,-19.48l-82.77 0 0 -148.01 691.38 0 0 148.01 -84.39 0c-45.12,0 -74.01,7.14 -86.99,21.75 -12.99,14.6 -19.48,48.04 -19.48,100.62l0 436.26 -142.5 0zm870.88 -772.86l230.46 0c92.51,0 160.35,-15.58 203.52,-47.07 43.18,-31.16 64.6,-81.15 64.6,-149.63 0,-70.44 -20.45,-120.75 -61.67,-150.94 -41.23,-30.51 -112.31,-45.77 -212.94,-45.77l-223.97 0 0 393.41zm0 496.3c0,52.91 7.14,86.02 21.43,99.98 14.28,13.95 50.63,21.1 109.06,21.1l91.54 0 0 148.01 -701.13 0 0 -148.01 75.96 0c57.78,0 93.81,-6.82 107.76,-20.45 13.96,-13.64 20.78,-47.07 20.78,-100.63l0 -768.96c0,-53.23 -6.82,-86.67 -20.78,-100.3 -13.95,-13.63 -49.98,-20.45 -107.76,-20.45l-75.96 0 0 -148.01 780.65 0c163.6,0 284.99,25.64 364.52,76.93 79.2,51.61 118.8,130.48 118.8,236.95 0,93.81 -31.49,168.79 -94.78,224.94 -62.97,56.16 -156.13,91.54 -279.48,106.14 93.49,13.96 158.73,40.25 196.06,79.2 37,39.28 58.75,106.8 65.24,203.2l8.44 117.18c3.25,45.77 8.77,75.3 17.2,89.26 8.12,13.96 21.75,21.1 40.58,21.1 37.65,0 57.78,-71.41 60.37,-214.23 0,-2.6 0,-4.55 0,-5.52l123.67 0c1.3,8.12 2.28,16.88 2.6,25.97 0.32,9.09 0.32,22.4 0.32,39.6 0,119.77 -21.74,207.09 -65.24,262.27 -43.17,55.18 -111.98,82.77 -205.79,82.77 -77.25,0 -137.95,-21.1 -181.77,-63.62 -43.5,-42.52 -66.87,-101.27 -69.14,-176.9l-5.84 -153.21c-3.9,-101.92 -26.3,-171.39 -67.84,-207.74 -41.55,-36.68 -120.1,-54.86 -235.98,-54.86l-93.49 0 0 348.29zm1805.06 -301.55l-169.43 -451.83 -153.86 451.83 323.29 0zm-850.76 570.64l0 -148.01 40.58 0c49.34,0 86.34,-8.77 110.68,-26.3 24.35,-17.52 45.45,-50.96 63.3,-100.3l364.19 -1032.2 273.96 0 389.84 1032.2c22.07,60.05 42.52,96.41 61.35,108.42 18.5,12.01 50.63,18.18 96.4,18.18l38.95 0 0 148.01 -676.13 0 0 -148.01 105.5 0c42.52,0 71.41,-3.58 86.34,-11.04 14.6,-7.14 22.07,-20.45 22.07,-39.6 0,-6.82 -0.97,-14.93 -3.25,-23.7 -2.27,-8.76 -6.81,-22.39 -13.63,-39.92l-56.15 -154.51 -430.74 0 -56.15 164.9c-1.3,4.54 -3.57,11.03 -6.5,20.12 -6.49,18.18 -9.73,31.16 -9.73,38.95 0,17.21 6.16,28.89 18.5,35.38 12.33,6.17 41.55,9.42 86.99,9.42l100.95 0 0 148.01 -607.32 0zm2608.11 0l0 -148.01 87.64 0c57.78,0 93.49,-6.82 107.44,-20.45 13.96,-13.64 21.1,-47.07 21.1,-100.3l0 -844.27 -421.32 1113.03 -128.86 0 -396.33 -1135.1 0 866.34c0,53.23 6.82,86.66 20.77,100.3 13.96,13.63 49.99,20.45 107.77,20.45l77.9 0 0 148.01 -609.59 0 0 -148.01 70.44 0c57.45,0 93.48,-6.82 107.44,-20.45 13.96,-13.64 20.77,-47.07 20.77,-100.3l0 -769.29c0,-53.23 -6.81,-86.67 -20.77,-100.3 -13.96,-13.63 -49.99,-20.45 -107.44,-20.45l-70.44 0 0 -148.01 607.64 0 291.16 847.84 324.27 -847.84 582.32 0 0 148.01 -74.33 0c-58.1,0 -94.46,6.82 -108.74,20.78 -14.28,13.95 -21.42,47.39 -21.42,99.97l0 769.29c0,52.58 7.14,86.01 21.42,99.97 14.28,13.96 50.64,20.78 108.74,20.78l74.33 0 0 148.01 -671.91 0zm1542.47 -570.64l-169.43 -451.83 -153.86 451.83 323.29 0zm-850.76 570.64l0 -148.01 40.58 0c49.34,0 86.34,-8.77 110.68,-26.3 24.35,-17.52 45.45,-50.96 63.3,-100.3l364.19 -1032.2 273.96 0 389.84 1032.2c22.07,60.05 42.52,96.41 61.35,108.42 18.5,12.01 50.63,18.18 96.4,18.18l38.95 0 0 148.01 -676.13 0 0 -148.01 105.5 0c42.52,0 71.41,-3.58 86.34,-11.04 14.6,-7.14 22.07,-20.45 22.07,-39.6 0,-6.82 -0.97,-14.93 -3.25,-23.7 -2.27,-8.76 -6.81,-22.39 -13.63,-39.92l-56.15 -154.51 -430.74 0 -56.15 164.9c-1.3,4.54 -3.57,11.03 -6.5,20.12 -6.49,18.18 -9.73,31.16 -9.73,38.95 0,17.21 6.16,28.89 18.5,35.38 12.33,6.17 41.55,9.42 86.99,9.42l100.95 0 0 148.01 -607.32 0zm1474.63 0l0 -148.01 75.96 0c57.78,0 93.81,-6.82 107.76,-20.45 13.96,-13.64 20.78,-47.07 20.78,-100.3l0 -769.29c0,-53.23 -6.82,-86.67 -20.78,-100.3 -13.95,-13.63 -49.98,-20.45 -107.76,-20.45l-75.96 0 0 -148.01 741.7 0c228.19,0 400.87,55.18 518.05,165.54 117.18,110.36 175.61,272.66 175.61,486.89 0,214.23 -58.76,376.85 -175.93,487.86 -117.51,111.01 -290.19,166.52 -517.73,166.52l-741.7 0zm479.1 -148.01l171.06 0c102.25,0 178.53,-7.79 229.17,-23.7 50.96,-15.9 94.78,-42.85 131.46,-80.82 36.68,-37.98 65.57,-92.51 86.99,-163.6 21.1,-71.08 31.81,-150.29 31.81,-237.93 0,-87.31 -10.71,-166.19 -31.81,-236.62 -21.42,-70.44 -50.31,-124.65 -86.99,-162.63 -36.68,-37.97 -80.5,-64.91 -131.46,-81.14 -50.64,-16.23 -126.92,-24.35 -229.17,-24.35l-171.06 0 0 1010.79zm1433.41 -506.37c0,168.79 36.35,300.25 109.38,394.38 72.71,94.13 173.66,141.2 303.17,141.2 129.19,0 229.82,-47.07 302.53,-140.87 72.38,-93.81 108.73,-225.27 108.73,-394.71 0,-168.79 -36.03,-299.92 -108.41,-393.41 -72.06,-93.48 -173.01,-140.22 -302.85,-140.22 -129.51,0 -230.46,46.74 -303.17,140.22 -73.03,93.49 -109.38,224.62 -109.38,393.41zm-307.72 0c0,-206.77 66.22,-373.28 198.33,-499.87 132.11,-126.27 306.09,-189.57 521.94,-189.57 216.18,0 389.84,63.3 521.63,189.57 131.46,126.59 197.35,293.1 197.35,499.87 0,207.41 -65.89,374.26 -198,501.17 -131.79,126.92 -305.45,190.21 -520.98,190.21 -215.85,0 -389.83,-63.62 -521.94,-190.53 -132.11,-127.24 -198.33,-294.08 -198.33,-500.85zm2033.25 -111.01l230.46 0c92.51,0 160.35,-15.58 203.52,-47.07 43.18,-31.16 64.6,-81.15 64.6,-149.63 0,-70.44 -20.45,-120.75 -61.67,-150.94 -41.23,-30.51 -112.31,-45.77 -212.94,-45.77l-223.97 0 0 393.41zm0 496.3c0,52.91 7.14,86.02 21.43,99.98 14.28,13.95 50.63,21.1 109.06,21.1l91.54 0 0 148.01 -701.13 0 0 -148.01 75.96 0c57.78,0 93.81,-6.82 107.76,-20.45 13.96,-13.64 20.78,-47.07 20.78,-100.63l0 -768.96c0,-53.23 -6.82,-86.67 -20.78,-100.3 -13.95,-13.63 -49.98,-20.45 -107.76,-20.45l-75.96 0 0 -148.01 780.65 0c163.6,0 284.99,25.64 364.52,76.93 79.2,51.61 118.8,130.48 118.8,236.95 0,93.81 -31.49,168.79 -94.78,224.94 -62.97,56.16 -156.13,91.54 -279.48,106.14 93.49,13.96 158.73,40.25 196.06,79.2 37,39.28 58.75,106.8 65.24,203.2l8.44 117.18c3.25,45.77 8.77,75.3 17.2,89.26 8.12,13.96 21.75,21.1 40.58,21.1 37.65,0 57.78,-71.41 60.37,-214.23 0,-2.6 0,-4.55 0,-5.52l123.67 0c1.3,8.12 2.28,16.88 2.6,25.97 0.32,9.09 0.32,22.4 0.32,39.6 0,119.77 -21.74,207.09 -65.24,262.27 -43.17,55.18 -111.98,82.77 -205.79,82.77 -77.25,0 -137.95,-21.1 -181.77,-63.62 -43.5,-42.52 -66.87,-101.27 -69.14,-176.9l-5.84 -153.21c-3.9,-101.92 -26.3,-171.39 -67.84,-207.74 -41.55,-36.68 -120.1,-54.86 -235.98,-54.86l-93.49 0 0 348.29zm1026.36 269.09l0 -148.01 75.96 0c57.78,0 93.81,-6.82 107.76,-20.45 13.96,-13.64 20.78,-47.39 20.78,-100.95l0 -769.29c0,-52.91 -6.82,-86.34 -20.78,-99.65 -13.95,-13.63 -49.98,-20.45 -107.76,-20.45l-75.96 0 0 -148.01 1285.39 0 0 520 -148.01 0c-3.9,-148.67 -28.24,-247.99 -72.71,-297.66 -44.79,-49.66 -135.36,-74.33 -272.01,-74.33l-313.56 0 0 401.2 74.01 0c81.8,0 135.36,-14.28 161,-42.52 25.32,-28.24 41.22,-93.16 47.39,-195.08l148.01 -0.98 0 655.36 -148.01 -0.98c-5.84,-111.98 -21.1,-184.37 -46.74,-216.83 -25.32,-32.78 -78.55,-49.01 -159.7,-49.01l-75.96 0 0 459.63 342.13 0c114.25,0 192.8,-26.62 235.33,-79.53 42.52,-52.91 69.46,-161.32 80.82,-325.57l148.01 0 0 553.11 -1285.39 0zm1510.98 0l0 -539.47 151.91 0c20.78,129.83 69.14,229.16 144.77,297.97 75.31,68.82 173.33,103.22 293.76,103.22 86.99,0 153.53,-14.6 199.3,-43.82 46.09,-29.21 69.14,-71.08 69.14,-126.26 0,-49.67 -17.53,-89.92 -52.91,-120.75 -35.06,-31.16 -91.54,-55.51 -168.79,-73.36l-212.28 -49.34c-152.24,-35.38 -261.63,-83.42 -328.49,-144.12 -66.87,-60.37 -100.3,-141.52 -100.3,-242.79 0,-123.02 42.84,-221.7 128.54,-295.71 85.36,-74.33 199.95,-111.33 343.42,-111.33 70.76,0 137.3,11.03 199.3,32.78 61.67,21.75 121.72,55.51 180.15,101.27l68.16 -95.1 116.53 0 0 494.68 -147.69 0c-22.4,-118.48 -69.14,-210.66 -140.55,-275.91 -71.09,-65.24 -161,-98.02 -268.76,-98.02 -78.55,0 -139.58,14.6 -182.75,44.14 -43.17,29.54 -64.59,70.76 -64.59,123.35 0,44.47 15.25,79.85 45.76,106.46 30.52,26.62 79.21,47.72 146.4,62.97l263.57 60.7c139.57,31.81 244.09,81.48 313.23,148.99 69.14,67.52 103.54,153.53 103.54,258.05 0,123.67 -45.44,224.62 -136,302.85 -90.89,78.23 -208.39,117.5 -353.16,117.5 -72.71,0 -145.09,-13.31 -216.83,-39.92 -71.73,-26.62 -144.12,-67.52 -217.8,-122.05l-42.84 123.02 -133.74 0z"/>
    </g>
   </g>
   <g>
    <polygon class="fil2" points="24630.02,2015.06 24999.46,1364.96 25368.91,714.86 26107.82,714.86 26846.72,714.86 27216.18,1364.96 27585.62,2015.06 27216.18,2665.16 26846.72,3315.26 26107.82,3315.26 25368.91,3315.26 24999.46,2665.16 "/>
    <g style="clip-path:url(#id0)">
     <g>
      <polygon id="_1" class="fil3" points="24764.81,2015.06 25100.55,1424.26 25436.31,833.46 26107.82,833.46 26779.33,833.46 27115.07,1424.26 27450.82,2015.06 27115.07,2605.87 26779.33,3196.66 26107.82,3196.66 25436.31,3196.66 25100.55,2605.87 "/>
     </g>
     <g style="clip-path:url(#id1)">
      <g>
       <rect class="fil4 str0" transform="matrix(-0.800288 1.34592 -0.800288 -1.34592 27406.4 5102.88)" width="877.92" height="877.92"/>
      </g>
     </g>
     <g style="clip-path:url(#id2)">
      <polygon class="fil5" points="24764.81,2015.06 25100.55,1424.26 25436.31,833.46 26107.82,833.46 26779.33,833.46 27115.07,1424.26 27450.82,2015.06 27115.07,2605.87 26779.33,3196.66 26107.82,3196.66 25436.31,3196.66 25100.55,2605.87 "/>
      <rect class="fil4 str0" transform="matrix(-0.88061 1.481 -0.88061 -1.481 26141.7 2015.07)" width="877.92" height="877.92"/>
     </g>
    </g>
    <polygon class="fil5 str0" points="24630.02,2015.06 24999.46,1364.96 25368.91,714.86 26107.82,714.86 26846.72,714.86 27216.18,1364.96 27585.62,2015.06 27216.18,2665.16 26846.72,3315.26 26107.82,3315.26 25368.91,3315.26 24999.46,2665.16 "/>
    <rect class="fil6" transform="matrix(3.33686E-14 -1.26238 1.48979 3.94563E-14 23808 2062.46)" width="75.1" height="1144.08"/>
    <rect class="fil6" transform="matrix(-1.20692 -0.370052 0.466618 -1.52187 26292.9 1781.62)" width="75.1" height="1144.08"/>
    <rect class="fil6" transform="matrix(-1.20692 0.370052 0.466618 1.52187 26292.9 2248.5)" width="75.1" height="1144.08"/>
    <rect class="fil6" transform="matrix(3.34334E-14 -1.26238 0.999096 2.64606E-14 26271.8 2062.46)" width="75.1" height="1144.08"/>
    <rect class="fil7" transform="matrix(3.34334E-14 -1.26238 0.14219 3.76584E-15 23516.6 2062.46)" width="75.1" height="1144.08"/>
   </g>
  </g>
 </g>
</svg>
